<svg xmlns="http://www.w3.org/2000/svg" viewBox="0 0 512 512" role="img" aria-label="Ascension System logo">
  <defs>
    <radialGradient id="bg" cx="50%" cy="42%" r="74%">
      <stop offset="0" stop-color="#16204a"/>
      <stop offset="0.48" stop-color="#0B0B0B"/>
      <stop offset="1" stop-color="#050505"/>
    </radialGradient>
    <linearGradient id="hex" x1="108" x2="404" y1="92" y2="420">
      <stop offset="0" stop-color="#F5F5F5"/>
      <stop offset="0.45" stop-color="#8B5CF6"/>
      <stop offset="1" stop-color="#3B82F6"/>
    </linearGradient>
    <linearGradient id="figure" x1="256" x2="256" y1="126" y2="392">
      <stop offset="0" stop-color="#F5F5F5"/>
      <stop offset="0.44" stop-color="#93C5FD"/>
      <stop offset="1" stop-color="#3B82F6"/>
    </linearGradient>
    <linearGradient id="gold" x1="178" x2="334" y1="118" y2="404">
      <stop offset="0" stop-color="#FDE68A"/>
      <stop offset="1" stop-color="#FBBF24"/>
    </linearGradient>
    <filter id="glow" x="-55%" y="-55%" width="210%" height="210%">
      <feGaussianBlur stdDeviation="5" result="blur"/>
      <feMerge>
        <feMergeNode in="blur"/>
        <feMergeNode in="SourceGraphic"/>
      </feMerge>
    </filter>
    <filter id="soft" x="-40%" y="-40%" width="180%" height="180%">
      <feGaussianBlur stdDeviation="12"/>
    </filter>
  </defs>
  <rect width="512" height="512" rx="104" fill="url(#bg)"/>
  <circle cx="256" cy="258" r="180" fill="none" stroke="#3B82F6" stroke-opacity=".12" stroke-width="2"/>
  <circle cx="256" cy="256" r="122" fill="#8B5CF6" opacity=".16" filter="url(#soft)"/>
  <g filter="url(#glow)" opacity=".94">
    <path d="M256 82 404 340H108Z" fill="none" stroke="url(#hex)" stroke-width="9" stroke-linejoin="round" stroke-opacity=".9"/>
    <path d="M256 430 108 172h296Z" fill="none" stroke="url(#hex)" stroke-width="9" stroke-linejoin="round" stroke-opacity=".68"/>
    <path d="M256 96v54M256 362v54M118 176l48 28M346 308l48 28" fill="none" stroke="#F5F5F5" stroke-width="4" stroke-linecap="round" stroke-opacity=".46"/>
  </g>
  <g filter="url(#glow)">
    <path d="M256 126c27 0 49 23 49 52s-22 52-49 52-49-23-49-52 22-52 49-52Z" fill="url(#figure)"/>
    <path d="M226 243c8-10 18-15 30-15s22 5 30 15c15 20 20 51 16 92-1 12-11 21-23 21h-46c-12 0-22-9-23-21-4-41 1-72 16-92Z" fill="url(#figure)" opacity=".96"/>
    <path d="M226 266 173 220M286 266l53-46M239 354l-26 70M273 354l26 70" fill="none" stroke="url(#figure)" stroke-width="20" stroke-linecap="round"/>
    <path d="M256 118v-44M224 130l-22-33M288 130l22-33" fill="none" stroke="#F5F5F5" stroke-width="7" stroke-linecap="round" stroke-opacity=".62"/>
  </g>
  <g fill="url(#gold)" opacity=".9">
    <path d="M256 66 264 86 256 106 248 86Z"/>
    <path d="M118 258 126 274 118 290 110 274Z"/>
    <path d="M394 258 402 274 394 290 386 274Z"/>
  </g>
  <g fill="#3B82F6" opacity=".78">
    <circle cx="152" cy="120" r="4"/>
    <circle cx="374" cy="132" r="5"/>
    <circle cx="94" cy="306" r="3"/>
    <circle cx="418" cy="306" r="3"/>
    <circle cx="176" cy="406" r="4"/>
    <circle cx="336" cy="404" r="4"/>
  </g>
  <g fill="#F5F5F5" opacity=".58">
    <circle cx="190" cy="88" r="2"/>
    <circle cx="322" cy="88" r="2"/>
    <circle cx="102" cy="204" r="2"/>
    <circle cx="410" cy="204" r="2"/>
    <circle cx="214" cy="438" r="2"/>
    <circle cx="298" cy="438" r="2"/>
  </g>
</svg>
