<svg xmlns="http://www.w3.org/2000/svg" viewBox="0 0 512 512" role="img" aria-label="Ascension System transparent mark">
  <defs>
    <linearGradient id="body" x1="256" x2="256" y1="142" y2="372">
      <stop offset="0" stop-color="#ffffff"/>
      <stop offset="0.46" stop-color="#7eeaff"/>
      <stop offset="1" stop-color="#226dff"/>
    </linearGradient>
    <linearGradient id="line" x1="96" x2="416" y1="96" y2="416">
      <stop offset="0" stop-color="#ffffff"/>
      <stop offset="0.5" stop-color="#5ce8ff"/>
      <stop offset="1" stop-color="#2f7dff"/>
    </linearGradient>
    <filter id="glow" x="-50%" y="-50%" width="200%" height="200%">
      <feGaussianBlur stdDeviation="5" result="blur"/>
      <feMerge>
        <feMergeNode in="blur"/>
        <feMergeNode in="SourceGraphic"/>
      </feMerge>
    </filter>
  </defs>
  <circle cx="256" cy="258" r="174" fill="none" stroke="#57e7ff" stroke-opacity=".12" stroke-width="2"/>
  <g filter="url(#glow)" opacity=".92">
    <path d="M256 84 405 342H107Z" fill="none" stroke="url(#line)" stroke-width="10" stroke-linejoin="round" stroke-opacity=".82"/>
    <path d="M256 428 107 170h298Z" fill="none" stroke="url(#line)" stroke-width="10" stroke-linejoin="round" stroke-opacity=".58"/>
    <path d="M256 92v58M256 362v58M114 174l52 30M346 310l52 30" fill="none" stroke="#eaf8ff" stroke-width="5" stroke-linecap="round" stroke-opacity=".58"/>
  </g>
  <g filter="url(#glow)">
    <path d="M256 130c32 0 58 27 58 61s-26 61-58 61-58-27-58-61 26-61 58-61Z" fill="url(#body)"/>
    <path d="M206 272c10-19 28-30 50-30s40 11 50 30l30 58c7 13-3 28-18 28H194c-15 0-25-15-18-28Z" fill="url(#body)" opacity=".94"/>
    <path d="M206 273 160 229M306 273l46-44M230 352l-33 66M282 352l33 66" fill="none" stroke="url(#body)" stroke-width="22" stroke-linecap="round"/>
    <path d="M256 112v-42M218 126l-24-34M294 126l24-34" fill="none" stroke="#f8fdff" stroke-width="8" stroke-linecap="round" stroke-opacity=".72"/>
  </g>
  <g fill="#eaf8ff" opacity=".82">
    <circle cx="151" cy="121" r="4"/>
    <circle cx="373" cy="130" r="5"/>
    <circle cx="96" cy="270" r="3"/>
    <circle cx="421" cy="270" r="3"/>
    <circle cx="151" cy="397" r="4"/>
    <circle cx="369" cy="390" r="4"/>
  </g>
</svg>
