<svg xmlns="http://www.w3.org/2000/svg" viewBox="0 0 512 512" role="img" aria-label="Ascension System maskable logo">
  <defs>
    <radialGradient id="bg" cx="50%" cy="42%" r="76%">
      <stop offset="0" stop-color="#172554"/>
      <stop offset="0.5" stop-color="#0B0B0B"/>
      <stop offset="1" stop-color="#050505"/>
    </radialGradient>
    <linearGradient id="hex" x1="118" x2="394" y1="112" y2="400">
      <stop offset="0" stop-color="#F5F5F5"/>
      <stop offset="0.45" stop-color="#8B5CF6"/>
      <stop offset="1" stop-color="#3B82F6"/>
    </linearGradient>
    <linearGradient id="figure" x1="256" x2="256" y1="142" y2="380">
      <stop offset="0" stop-color="#F5F5F5"/>
      <stop offset="0.44" stop-color="#93C5FD"/>
      <stop offset="1" stop-color="#3B82F6"/>
    </linearGradient>
    <linearGradient id="gold" x1="190" x2="322" y1="116" y2="396">
      <stop offset="0" stop-color="#FDE68A"/>
      <stop offset="1" stop-color="#FBBF24"/>
    </linearGradient>
    <filter id="glow" x="-50%" y="-50%" width="200%" height="200%">
      <feGaussianBlur stdDeviation="5" result="blur"/>
      <feMerge>
        <feMergeNode in="blur"/>
        <feMergeNode in="SourceGraphic"/>
      </feMerge>
    </filter>
  </defs>
  <rect width="512" height="512" fill="url(#bg)"/>
  <circle cx="256" cy="256" r="204" fill="none" stroke="#3B82F6" stroke-opacity=".12" stroke-width="2"/>
  <g filter="url(#glow)" opacity=".94">
    <path d="M256 106 386 332H126Z" fill="none" stroke="url(#hex)" stroke-width="10" stroke-linejoin="round" stroke-opacity=".9"/>
    <path d="M256 406 126 180h260Z" fill="none" stroke="url(#hex)" stroke-width="10" stroke-linejoin="round" stroke-opacity=".68"/>
  </g>
  <g filter="url(#glow)">
    <path d="M256 142c25 0 45 21 45 48s-20 48-45 48-45-21-45-48 20-48 45-48Z" fill="url(#figure)"/>
    <path d="M229 250c7-9 16-14 27-14s20 5 27 14c14 19 18 48 15 86-1 11-10 19-21 19h-42c-11 0-20-8-21-19-3-38 1-67 15-86Z" fill="url(#figure)" opacity=".96"/>
    <path d="M229 272 181 230M283 272l48-42M241 354l-24 64M271 354l24 64" fill="none" stroke="url(#figure)" stroke-width="20" stroke-linecap="round"/>
    <path d="M256 132V92M226 144l-20-30M286 144l20-30" fill="none" stroke="#F5F5F5" stroke-width="7" stroke-linecap="round" stroke-opacity=".62"/>
  </g>
  <g fill="url(#gold)" opacity=".9">
    <path d="M256 86 264 104 256 122 248 104Z"/>
    <path d="M132 256 140 272 132 288 124 272Z"/>
    <path d="M380 256 388 272 380 288 372 272Z"/>
  </g>
  <g fill="#3B82F6" opacity=".78">
    <circle cx="158" cy="142" r="4"/>
    <circle cx="354" cy="148" r="4"/>
    <circle cx="132" cy="318" r="3"/>
    <circle cx="380" cy="318" r="3"/>
    <circle cx="188" cy="394" r="4"/>
    <circle cx="324" cy="394" r="4"/>
  </g>
</svg>
