<svg xmlns="http://www.w3.org/2000/svg" viewBox="0 0 1080 1920" role="img" aria-label="Ascension System splash screen">
  <defs>
    <radialGradient id="bg" cx="50%" cy="40%" r="76%">
      <stop offset="0" stop-color="#172554"/>
      <stop offset="0.46" stop-color="#0B0B0B"/>
      <stop offset="1" stop-color="#050505"/>
    </radialGradient>
    <linearGradient id="hex" x1="300" x2="780" y1="520" y2="1120">
      <stop offset="0" stop-color="#F5F5F5"/>
      <stop offset="0.45" stop-color="#8B5CF6"/>
      <stop offset="1" stop-color="#3B82F6"/>
    </linearGradient>
    <linearGradient id="figure" x1="540" x2="540" y1="610" y2="1030">
      <stop offset="0" stop-color="#F5F5F5"/>
      <stop offset="0.44" stop-color="#93C5FD"/>
      <stop offset="1" stop-color="#3B82F6"/>
    </linearGradient>
    <linearGradient id="gold" x1="430" x2="650" y1="520" y2="1120">
      <stop offset="0" stop-color="#FDE68A"/>
      <stop offset="1" stop-color="#FBBF24"/>
    </linearGradient>
    <filter id="glow" x="-55%" y="-55%" width="210%" height="210%">
      <feGaussianBlur stdDeviation="8" result="blur"/>
      <feMerge>
        <feMergeNode in="blur"/>
        <feMergeNode in="SourceGraphic"/>
      </feMerge>
    </filter>
    <filter id="soft" x="-40%" y="-40%" width="180%" height="180%">
      <feGaussianBlur stdDeviation="24"/>
    </filter>
  </defs>
  <rect width="1080" height="1920" fill="url(#bg)"/>
  <g opacity=".1" stroke="#3B82F6" stroke-width="1">
    <path d="M0 600h1080M0 800h1080M0 1000h1080M0 1200h1080"/>
    <path d="M240 0v1920M540 0v1920M840 0v1920"/>
  </g>
  <g transform="translate(0 72)">
    <circle cx="540" cy="810" r="220" fill="#8B5CF6" opacity=".16" filter="url(#soft)"/>
    <g filter="url(#glow)" opacity=".94">
      <path d="M540 470 782 890H298Z" fill="none" stroke="url(#hex)" stroke-width="16" stroke-linejoin="round" stroke-opacity=".9"/>
      <path d="M540 1038 298 618h484Z" fill="none" stroke="url(#hex)" stroke-width="16" stroke-linejoin="round" stroke-opacity=".68"/>
      <path d="M540 492v92M540 924v92M318 626l78 46M684 872l78 46" fill="none" stroke="#F5F5F5" stroke-width="8" stroke-linecap="round" stroke-opacity=".46"/>
    </g>
    <g filter="url(#glow)">
      <path d="M540 548c46 0 82 38 82 86s-36 86-82 86-82-38-82-86 36-86 82-86Z" fill="url(#figure)"/>
      <path d="M491 744c13-18 29-27 49-27s36 9 49 27c25 34 33 84 27 150-2 20-18 35-38 35h-76c-20 0-36-15-38-35-6-66 2-116 27-150Z" fill="url(#figure)" opacity=".96"/>
      <path d="M491 782 404 706M589 782l87-76M512 928l-43 116M568 928l43 116" fill="none" stroke="url(#figure)" stroke-width="34" stroke-linecap="round"/>
      <path d="M540 532v-74M488 552l-36-54M592 552l36-54" fill="none" stroke="#F5F5F5" stroke-width="12" stroke-linecap="round" stroke-opacity=".62"/>
    </g>
    <g fill="url(#gold)" opacity=".9">
      <path d="M540 430 554 464 540 498 526 464Z"/>
      <path d="M310 804 324 832 310 860 296 832Z"/>
      <path d="M770 804 784 832 770 860 756 832Z"/>
    </g>
    <g fill="#3B82F6" opacity=".78">
      <circle cx="350" cy="526" r="7"/>
      <circle cx="734" cy="546" r="8"/>
      <circle cx="232" cy="900" r="5"/>
      <circle cx="848" cy="900" r="5"/>
      <circle cx="370" cy="1134" r="7"/>
      <circle cx="710" cy="1128" r="7"/>
    </g>
  </g>
  <text x="540" y="1326" text-anchor="middle" fill="#F5F5F5" font-family="Inter, Arial, sans-serif" font-size="64" font-weight="900" letter-spacing="4">ASCENSION SYSTEM</text>
  <text x="540" y="1398" text-anchor="middle" fill="#C4B5FD" font-family="Inter, Arial, sans-serif" font-size="28" font-weight="700">Toda ascensão começa com uma decisão.</text>
</svg>
